<svg xmlns="http://www.w3.org/2000/svg" width="645.658" height="549.205">
										<circle fill="#099DD9" cx="312.515" cy="195.503" r="195.503"></circle>
										<path fill="#FFF" d="M424.779 183.037c-6.07-1.062-11.493 2.079-13.588 7.983-.401 1.128-.897 1.501-2.097 1.494-7.364-.057-14.73-.057-22.095.009-1.491.013-1.963-.227-1.654-1.89 1.178-6.271 1.815-12.615 1.359-18.993-.121-1.725.326-2.174 1.892-2.479 11.571-2.248 23.124-4.597 34.69-6.879 1.972-.39 2.886-1.417 2.838-3.48-.081-3.45.057-6.907-.051-10.355-.043-1.452.381-2.074 1.797-2.604 5.888-2.201 9.075-8.41 7.527-14.287-1.483-5.623-6.559-9.365-12.295-9.061-5.864.31-10.678 4.553-11.438 10.087-.846 6.176 2.215 11.484 7.963 13.396 1.361.455 1.57 1.081 1.537 2.279a120.47 120.47 0 0 0 .007 7.362c.046 1.368-.278 1.934-1.802 2.216-10.54 1.956-21.054 4.035-31.56 6.15-1.458.293-1.773-.101-1.996-1.5-1.389-8.592-4.039-16.788-7.989-24.555-.277-.542-.965-1.05-.495-1.876 7.668 0 15.338.01 23.009-.005 2.689-.004 3.584-.903 3.608-3.568.018-2.38.104-4.764-.037-7.135-.108-1.762.386-2.557 2.19-3.231 5.335-1.995 8.368-7.835 7.335-13.405-1.016-5.48-5.754-9.54-11.491-9.842-5.459-.292-10.52 3.364-12.105 8.738-1.606 5.441.591 11.754 5.737 13.84 3.271 1.322 3.703 3.139 3.384 5.952-.05.454-.075.928-.005 1.376.236 1.521-.392 1.915-1.884 1.9-7.288-.073-14.577-.064-21.864.007-1.256.013-1.943-.436-2.573-1.438-3.33-5.278-7.257-10.093-11.815-14.344-20.28-18.91-44.272-26.154-71.55-21.921-16.529 2.564-31.076 9.779-43.189 21.374-21.111 20.203-29.377 44.95-25.293 73.83.22 1.563.033 2.788-.692 4.118a7122.357 7122.357 0 0 0-14.871 27.435c-1.391 2.569-.893 3.82 1.859 4.888 6.485 2.519 12.945 5.106 19.466 7.519 1.443.532 1.777 1.225 1.77 2.643-.05 11.584-.027 23.17-.017 34.754.003 3.255.804 4.046 4.089 4.05 9.667.009 19.335.034 29.002-.03 1.491-.008 1.965.374 1.945 1.912-.084 6.292-.049 12.583-.028 18.875.011 3.041.801 3.815 3.795 3.815 25.32 0 50.638-.002 75.957-.009 3.425 0 4.149-.729 4.149-4.187.003-14.81.001-29.617.001-44.424 0-3.941 1.4-5.296 5.489-5.296h18.873c4.926 0 4.81.005 4.981 4.814.079 2.121-.439 3.132-2.554 3.982-5.227 2.09-8.016 7.848-6.934 13.388.998 5.101 5.579 9.187 10.728 9.567 5.967.443 10.981-2.859 12.75-8.401 1.672-5.229-.127-11.631-5.055-13.679-4.148-1.723-4.32-4.273-4.033-7.697.077-.914.009-1.843.007-2.762-.009-3.969-.599-4.577-4.486-4.579-6.353-.004-12.698 0-19.735 0 6.496-5.577 11.714-11.35 15.818-18.066.547-.897 1.21-.696 1.967-.545 10.513 2.077 21.027 4.165 31.549 6.201 1.15.224 1.425.759 1.39 1.847-.075 2.531-.094 5.065.005 7.595.053 1.337-.322 1.937-1.67 2.425-5.643 2.029-8.967 7.892-7.862 13.525 1.154 5.896 6.067 9.905 12.108 9.879 5.776-.024 10.762-4.138 11.754-9.702 1.119-6.266-1.925-11.646-7.958-13.772-1.228-.436-1.425-1.052-1.409-2.167.055-3.604.022-7.21.025-10.819.002-1.853-.721-2.896-2.729-3.277-10.758-2.034-21.489-4.195-32.23-6.307-.948-.185-2.127-.062-1.221-1.688 2.61-4.7 4.547-9.686 6.03-14.844.359-1.24 1.056-1.387 2.165-1.381 7.75.041 15.499.057 23.248-.018 1.498-.015 2.203.305 2.763 1.87 1.95 5.461 7.824 8.701 13.427 7.676 5.912-1.081 9.974-6.141 9.888-12.322-.077-5.878-4.175-11.019-9.521-11.951zm-80.853 58.534c-1.983 1.214-2.837 2.553-2.819 4.956.112 14.573.024 29.15.092 43.723.009 1.747-.342 2.33-2.229 2.313-11.428-.101-22.856-.05-34.287-.047-11.354 0-22.706-.029-34.058.035-1.57.009-2.103-.345-2.075-2.005.1-6.138.042-12.273.036-18.412-.001-3.584-.734-4.335-4.249-4.337-9.515-.006-19.025-.057-28.538.044-1.848.021-2.26-.517-2.246-2.291.078-10.969-.02-21.939.076-32.908.018-2.295-.808-3.427-2.947-4.212-6.168-2.27-12.238-4.799-18.388-7.118-1.276-.483-1.441-.88-.792-2.049 4.908-8.822 9.749-17.679 14.653-26.5.454-.821.477-1.571.31-2.417-7.708-39.043 15.512-75.944 50.305-88.662 43.558-15.925 92.608 10.738 102.678 55.996 7.392 33.229-6.522 66.158-35.522 83.891z"></path>
										<path fill="none" d="M319.309 152.446c-5.564.023-11.092.037-16.619.037-5.714 0-11.43-.013-17.146-.044h-.002c-.716 0-1.145.112-1.382.352-.246.249-.353.699-.342 1.458.05 3.865.043 7.729.035 11.591l.002 9.413c.009 4.111.018 8.225-.031 12.338-.009.753.097 1.202.344 1.452.242.246.679.359 1.374.359a3356.863 3356.863 0 0 1 33.749.002c.644 0 1.025-.09 1.219-.286.198-.2.285-.583.282-1.24a3619.433 3619.433 0 0 1 0-33.926c.003-.636-.086-1.022-.284-1.22-.195-.198-.566-.286-1.199-.286z"></path>
										<path fill="#FFF" d="M319.525 147.042c-5.497-.014-27.829-.021-33.549-.038-2.735 0-4.647.607-5.848 1.856-1.193 1.238-1.7 3.101-1.594 5.861.126 3.22.108 6.436.09 9.651-.017 2.885-.032 5.77.054 8.654.173 5.595.167 10.685-.018 15.555a5.874 5.874 0 0 0 1.658 4.318 6.048 6.048 0 0 0 4.312 1.865c5.956.016 11.915.031 17.872.031 5.864 0 11.729-.015 17.593-.057 3.812-.025 6.091-2.417 6.103-6.396.012-4.046.018-22.56.018-22.56.004-4.041.008-8.081-.011-12.121-.016-4.318-2.325-6.607-6.68-6.619zm1.267 40.835c.003.657-.084 1.04-.282 1.24-.194.196-.575.286-1.219.286a3356.863 3356.863 0 0 0-33.749-.002c-.694 0-1.132-.113-1.374-.359-.248-.25-.353-.699-.344-1.452.049-4.113.041-8.227.031-12.338l-.002-9.413c.008-3.862.015-7.726-.035-11.591-.011-.759.096-1.209.342-1.458.237-.24.666-.352 1.382-.352h.002c5.716.031 11.432.044 17.146.044 5.527 0 11.055-.013 16.619-.037.634 0 1.004.088 1.2.286.198.198.287.584.284 1.22a3585.608 3585.608 0 0 0-.001 33.926zM273.018 183.2l-8.156-.019-6.695.015c-2.61.015-3.238 1.522-3.308 2.782-.041.776.19 1.456.668 1.965.594.634 1.529.977 2.708.991.987.013 1.976.016 2.963.016l11.695-.015c1.232-.011 2.24-.38 2.835-1.039.451-.498.654-1.139.588-1.855-.16-1.825-1.333-2.834-3.298-2.841zM283.13 140.968c.009 2.076 1.099 3.471 2.776 3.551l.154.003c1.681 0 2.776-1.335 2.792-3.403.032-4.884.039-9.769-.001-14.653-.024-2.247-.933-3.388-2.857-3.388h-.007c-1.289.047-2.834.683-2.869 3.434a347.897 347.897 0 0 0-.009 5.005l.016 2.592.005 6.859zM272.876 152.519l-14.51.003c-2.877.011-3.5 1.511-3.517 2.769-.007.844.326 1.603.942 2.132.619.529 1.483.814 2.501.826 2.079.018 4.156.023 6.234.023l8.472-.021c1.98-.009 3.16-1.014 3.32-2.829.063-.713-.144-1.354-.598-1.855-.605-.666-1.615-1.037-2.844-1.048zM286.016 196.947c-1.68 0-2.861 1.409-2.875 3.427-.02 3.539-.017 7.077-.013 10.615l.002 4.081c0 2.586 1.513 3.221 2.78 3.298l.224.007c1.695 0 2.722-1.255 2.744-3.359.017-1.736.013-3.474.007-5.21 0 0 .003-7.609-.007-9.291-.017-2.18-1.054-3.514-2.862-3.568zM333.861 156.176c2.971.029 5.942.048 8.912.048h.011c2.283 0 4.566-.011 6.847-.037 1.228-.013 2.257-.42 2.896-1.145.506-.573.726-1.293.636-2.079-.146-1.28-.888-2.806-3.62-2.806l-7.674.003s-6.859-.005-7.889.007c-2.294.029-3.452 1.006-3.439 2.901.011 1.986 1.19 3.088 3.32 3.108zM349.863 182.804c-2.743-.1-5.485-.159-8.229-.159-2.659 0-5.319.055-7.978.185-1.382.067-3.205.444-3.121 2.934.063 1.884 1.282 2.934 3.432 2.956 1.047.013 2.093.017 3.14.017l9.311-.018c1.04 0 3.252.025 3.252.025 2.071 0 3.342-1.028 3.487-2.826.07-.854-.132-1.555-.602-2.084-.557-.628-1.487-.984-2.692-1.03zM273.067 167.788l-14.882-.001c-2.117.009-3.333.99-3.333 2.696 0 1.766 1.215 2.824 3.246 2.833l15.108.021c1.892 0 2.969-.929 3.111-2.687.059-.714-.15-1.357-.605-1.855-.578-.637-1.519-.994-2.645-1.007zM301.618 141.574l.306.021c1.573 0 2.778-1.566 2.802-3.645.021-1.83.015-3.661.011-5.492l-.003-9.885c-.012-1.559-.315-3.629-2.895-3.629-1.969.033-2.93 1.227-2.936 3.652l.009 5.419c.009 3.317.021 6.632-.029 9.949-.032 2.185.862 3.366 2.735 3.61zM316.572 141.239c.443.237.907.357 1.374.357 1.61 0 2.874-1.438 2.941-3.344.066-1.872.051-3.746.037-5.621l-.009-4.692c.003-1.832.009-3.662-.006-5.491-.017-2.339-.939-3.483-2.872-3.5-1.342 0-2.945.583-2.963 3.354-.016 3.041-.011 6.081-.007 9.12v7.089c-.003 1.294.491 2.185 1.505 2.728zM349.759 166.354l-15.978-.017c-2.081 0-3.168.949-3.238 2.819-.031.875.204 1.583.696 2.097.571.599 1.459.906 2.639.919l3.181.011 9.547-.019c1.07 0 2.141.007 3.212.029h.123c1.91 0 3.028-.967 3.231-2.798a2.453 2.453 0 0 0-.625-1.912c-.634-.712-1.651-1.124-2.788-1.129zM301.686 197.28c-1.72 0-2.75 1.33-2.76 3.556a2185.09 2185.09 0 0 0-.005 15.362c.007 3.084 1.538 3.731 2.822 3.731h.019c1.785-.013 2.954-1.473 2.976-3.72.017-1.786.013-3.572.009-5.357l.005-1.953-.011-2.697c-.012-1.782-.025-3.564.029-5.344.07-2.23-.834-3.397-3.084-3.578zM317.881 197.29h-.003c-1.772.042-2.822 1.212-2.805 3.128.018 2.029.012 4.059.009 6.088l-.002 4.842c.002 1.751.006 3.503-.012 5.254-.009 1.13.267 1.989.826 2.551.479.483 1.146.729 1.985.729h.035c1.813-.013 2.956-1.266 2.981-3.267.05-3.806.044-7.61.039-11.415l-.004-4.783c-.001-1.957-1.1-3.127-3.049-3.127z"></path>
										<path fill="#DDE7ED" d="M312.441 480.62a57.547 57.547 0 0 1-14.996-2.255c-13.909-3.793-31.699-8.987-31.875-9.036a.98.98 0 0 1 .549-1.882c.176.049 17.946 5.233 31.846 9.026 12.574 3.431 22.238 2.833 28.738-1.764 5.684-4.038 8.928-11.115 9.645-21.044.871-12.154 3.018-20.143 6.959-25.905 4.342-6.342 11.146-10.36 21.406-12.635 27.561-6.106 94.967-22.671 144.18-34.756 22.221-5.459 39.766-9.802 48.164-11.762 32.602-7.753 54.547 3.352 58.594 17.73 2.754 9.802-3.498 18.701-15.928 22.77-6.301 2.058-63.16 17.123-65.582 17.76a.98.98 0 0 1-.498-1.892c.588-.156 59.221-15.683 65.473-17.73 11.518-3.764 17.133-11.576 14.654-20.378-1.883-6.675-8.096-12.418-17.055-15.751-7.469-2.783-20.338-5.155-39.207-.656-8.398 1.96-25.943 6.312-48.154 11.762-49.223 12.095-116.639 28.649-144.229 34.766-18.389 4.078-25.162 13.35-26.838 36.756-.754 10.547-4.273 18.113-10.467 22.544-4.049 2.891-9.205 4.332-15.379 4.332z"></path>
										<ellipse opacity=".2" cx="157.088" cy="193.348" rx="4.244" ry="6.459"></ellipse>
										<path fill="#E08500" d="M156.755 196.121h-9.753l1.235-2.764-1.235-2.793h9.753v5.557z"></path>
										<ellipse fill="#B26500" cx="147.002" cy="193.346" rx="1.833" ry="2.784"></ellipse>
										<ellipse fill="#E08500" cx="156.804" cy="193.346" rx="1.833" ry="2.784"></ellipse>
										<ellipse opacity=".2" cx="251.232" cy="208.06" rx="4.283" ry="6.518"></ellipse>
										<path fill="#DDE7ED" d="M21.962 429.543c-1.098 0-2.187 0-3.283-.078-9.164-.451-15.908-3.646-18.035-8.547a8.224 8.224 0 0 1 1.588-8.821c5.156-6.097 19.535-10.399 44.411-4.225 5.567 1.382 11.193 2.94 17.172 4.577a71.652 71.652 0 0 0 8.282-8.125c16.771-19.3 33.6-58.81 18.623-137.408-5.725-29.934 2.49-47.586 10.38-57.133 9.292-11.038 30.975-17.42 45.403-17.446a.979.979 0 1 1 0 1.96c-13.846.016-34.979 6.138-43.896 16.731-7.625 9.223-15.545 26.336-9.967 55.516 15.172 79.393-1.961 119.432-19.025 139.064a71.932 71.932 0 0 1-7.518 7.469c6.155 1.744 12.742 3.665 20.005 5.792a4289.004 4289.004 0 0 0 25.337 7.352.98.98 0 1 1-.441 1.91c-.033-.008-.066-.018-.099-.028-9.586-2.744-17.967-5.195-25.348-7.352-7.84-2.283-14.77-4.313-21.288-6.155a67.526 67.526 0 0 1-42.301 14.947zm2.804-22.67c-11.135 0-18.063 3-21.034 6.509a6.254 6.254 0 0 0-1.284 6.753c1.411 3.244 6.44 6.861 16.339 7.371a64.506 64.506 0 0 0 43.127-13.526c-5.469-1.529-10.645-2.94-15.761-4.186a89.644 89.644 0 0 0-21.387-2.931v.01z"></path>
										<path fill="#E08500" d="M250.899 210.843h-9.753l1.235-2.764-1.235-2.793h9.753v5.557z"></path>
										<ellipse fill="#B26500" cx="241.146" cy="208.06" rx="1.833" ry="2.783"></ellipse>
										<ellipse fill="#E08500" cx="250.938" cy="208.06" rx="1.832" ry="2.783"></ellipse>
										<ellipse opacity=".2" cx="330.705" cy="28.267" rx="4.116" ry="6.253"></ellipse>
										<path fill="#E08500" d="M331.039 25.493h9.752l-1.244 2.764 1.244 2.793h-9.752v-5.557z"></path>
										<ellipse fill="#B26500" cx="340.79" cy="28.266" rx="1.833" ry="2.783"></ellipse>
										<ellipse fill="#E08500" cx="330.99" cy="28.266" rx="1.833" ry="2.783"></ellipse>
										<path fill="#DDE7ED" d="M96.042 436.454a.908.908 0 0 1-.255 0c-5.47-1.489-21.563-5.792-31.188-8.36l-6.783-1.843C37.9 420.89 14.69 408.765 17.238 381.438c1.039-11.154 7.361-21.789 17.811-29.934 16.887-13.193 41.617-18.446 67.855-14.408 20.887 3.225 24.66 4.067 31.502 5.597l2.45.549c28.514 6.321 47.479 4.371 57.985-5.97 16.124-15.868 10.557-50.968 3.48-85.548-3.117-15.231-1.265-26.895 5.498-34.658 9.537-10.929 37.189-10.027 37.847-9.988.542.035-.048.502-.083 1.044s-.503.952-1.045.917c-.156 0-26.368-.863-35.248 9.331-6.342 7.272-8.037 18.368-5.048 32.962 7.185 35.119 12.801 70.786-4.028 87.342-11.018 10.84-30.581 12.967-59.789 6.488l-2.461-.549c-6.802-1.529-10.547-2.362-31.365-5.577-25.68-3.921-49.869 1.146-66.355 14.006-10.018 7.842-16.074 17.957-17.055 28.572-2.411 25.964 19.945 37.578 39.137 42.744l6.773 1.813c9.615 2.567 25.719 6.86 31.198 8.37a.988.988 0 1 1-.254 1.96l-.001-.047zm455.094.226a.989.989 0 1 1-.253-1.96l53.496-14.478c34.766-9.36 40.471-28.424 39.139-42.744-.98-10.448-6.861-20.456-16.664-28.17-16.387-12.918-40.715-18.162-66.738-14.408-33.492 4.833-65.787 12.351-81.352 15.957-4.195.98-7.225 1.677-9.008 2.039-34.012 6.959-65.945 1.078-89.988-16.486-18.916-13.85-30.629-33.639-32.982-55.712-3.666-34.364 8.4-53.85 20.064-72.688 10.398-16.79 41.15-89.148 41.299-117.357.098-18.163-5.166-32.718-15.684-43.245-11.654-11.762-29.797-18.172-51.094-18.172a.979.979 0 1 1 0-1.96c21.826 0 40.459 6.655 52.486 18.75 10.859 10.919 16.311 25.935 16.211 44.646-.156 28.757-31.055 101.361-41.563 118.376-12.018 19.407-23.376 37.746-19.779 71.443 2.293 21.563 13.723 40.824 32.188 54.34 23.523 17.251 54.977 23.004 88.469 16.192 1.744-.353 4.773-1.059 8.949-2.029 15.555-3.616 47.91-11.144 81.48-15.986 26.551-3.832 51.418 1.559 68.229 14.811 10.213 8.047 16.396 18.534 17.426 29.522 2.539 27.326-20.662 39.451-40.578 44.822l-53.496 14.477a.967.967 0 0 1-.257.02z"></path>
										<path fill="#24292E" d="M367.849 454.803l136.916-33.452a7.89 7.89 0 0 0 5.793-7.42l3.549-98.329c.215-5.185-4.225-9.214-9.037-8.194l-140.465 27.964a7.901 7.901 0 0 0-6.068 7.842V447.11c0 5.076 4.558 8.889 9.312 7.693z"></path>
										<path fill="#24292E" d="M436.41 499.331l141.221-38.932a2.537 2.537 0 0 0 1.842-2.538v-4.539l-67.904-25.16a2.511 2.511 0 0 0-1.803-.255l-144.848 23.867v5.547a2.668 2.668 0 0 0 1.049 2.313l51.664 36.423a22.293 22.293 0 0 0 18.779 3.274z"></path>
										<path fill="#2F363C" d="M436.41 494.538l141.221-38.932a2.51 2.51 0 0 0 .559-4.607s-64.229-36.266-66.855-37.727a8.706 8.706 0 0 0-5.705-.676l-136.986 34.227a4.832 4.832 0 0 0-1.676 8.645l50.664 35.746a22.283 22.283 0 0 0 18.778 3.324z"></path>
										<path opacity=".15" fill="#8F979F" d="M498.199 419.664l-108.021 27.288a1.605 1.605 0 0 0-1.256 1.895c.088.434.35.812.727 1.046l34.697 23.602c.77.522 1.728.687 2.627.451l109.982-28.875a1.61 1.61 0 0 0 .401-2.942l-37.734-22.19a1.955 1.955 0 0 0-1.423-.275zm26.17 44.107L511.451 456a4.827 4.827 0 0 0-3.715-.529l-36.893 9.703a1.609 1.609 0 0 0-.49 2.892l12.742 8.625a3.222 3.222 0 0 0 2.646.441l38.225-10.419a1.607 1.607 0 0 0 .403-2.942z"></path>
										<path fill="#444D56" d="M503.521 321.845l-2.471 81.157a1.957 1.957 0 0 1-1.459 1.813l-128.127 31.757a1.962 1.962 0 0 1-2.391-1.881l.49-86.254a1.96 1.96 0 0 1 1.539-1.872l130.135-26.641a1.959 1.959 0 0 1 2.284 1.921z"></path>
										<path fill="#24292E" d="M277.861 454.803l-136.898-33.452a7.892 7.892 0 0 1-5.792-7.42l-3.548-98.329c-.217-5.185 4.225-9.214 9.037-8.194l140.445 27.964a7.9 7.9 0 0 1 6.067 7.842V447.11c0 5.076-4.557 8.889-9.311 7.693z"></path>
										<path fill="#CBCFD4" d="M209.299 499.331L68.078 460.398a2.541 2.541 0 0 1-1.833-2.509v-4.538l67.905-25.161a2.514 2.514 0 0 1 1.804-.255l144.827 23.857v5.548a2.668 2.668 0 0 1-1.049 2.313l-51.664 36.423a22.285 22.285 0 0 1-18.769 3.255z"></path>
										<path fill="#F4F5F6" d="M209.299 494.538L68.078 455.605a2.51 2.51 0 0 1-.559-4.607s64.229-36.266 66.856-37.727a8.703 8.703 0 0 1 5.704-.676l136.986 34.227a4.832 4.832 0 0 1 1.676 8.644l-50.664 35.747a22.28 22.28 0 0 1-18.778 3.325z"></path>
										<path opacity=".15" fill="#8F979F" d="M147.51 419.664l108.032 27.278a1.607 1.607 0 0 1 .529 2.941l-34.697 23.602a3.223 3.223 0 0 1-2.627.451L108.784 445.03a1.608 1.608 0 0 1-.403-2.941l37.736-22.19c.42-.248.916-.332 1.393-.235zm-24.572 43.822l12.919-7.773a4.83 4.83 0 0 1 3.715-.528l36.893 9.703a1.607 1.607 0 0 1 .49 2.892l-12.742 8.625a3.223 3.223 0 0 1-2.646.441l-38.227-10.419a1.61 1.61 0 0 1-1.143-1.966c.109-.409.375-.76.741-.975z"></path>
										<path fill="#444D56" d="M142.188 321.845l2.47 81.157a1.961 1.961 0 0 0 1.461 1.813l128.145 31.786a1.961 1.961 0 0 0 2.393-1.881l-.49-86.254a1.961 1.961 0 0 0-1.539-1.872l-130.125-26.699a1.961 1.961 0 0 0-2.315 1.95z"></path>
										<path fill="#DDE7ED" d="M312.441 480.62a57.547 57.547 0 0 1-14.996-2.255c-13.909-3.793-31.699-8.987-31.875-9.036a.98.98 0 0 1 .549-1.882c.176.049 17.946 5.233 31.846 9.026 12.574 3.431 22.238 2.833 28.738-1.764 5.684-4.038 8.928-11.115 9.645-21.044a.982.982 0 1 1 1.959.137c-.754 10.547-4.273 18.113-10.467 22.544-4.069 2.834-9.225 4.274-15.399 4.274z"></path>
										<path fill="#24292E" d="M510.872 404.58l3.215-88.988c.215-5.186-4.225-9.214-9.037-8.194l-140.445 27.974a7.901 7.901 0 0 0-6.068 7.842v98.015l152.335-36.649zm-376.005 0l-3.215-88.988c-.216-5.186 4.225-9.214 9.037-8.194l140.445 27.974a7.9 7.9 0 0 1 6.067 7.842v98.015L134.867 404.58z"></path>
										<path fill="#3B446B" d="M142.217 321.845l2.47 81.157a1.961 1.961 0 0 0 1.461 1.813l128.146 31.786a1.962 1.962 0 0 0 2.393-1.881l-.49-86.254a1.961 1.961 0 0 0-1.539-1.872l-130.125-26.699a1.961 1.961 0 0 0-2.281 1.575c-.026.124-.036.25-.035.375z"></path>
										<path fill="#2F363C" d="M503.677 321.845l-2.469 81.157a1.961 1.961 0 0 1-1.461 1.813l-128.145 31.757a1.961 1.961 0 0 1-2.393-1.881l.49-86.254a1.961 1.961 0 0 1 1.539-1.872l130.135-26.641a1.96 1.96 0 0 1 2.304 1.921z"></path>
										<path opacity=".15" fill="#24292E" d="M146.031 465.946c3.803-.363 5.733-2.265 4.597-3.921-1.96-2.773-11.351-3.979-15.35-4.421-8.066-.892-6.86-7.841-.353-9.938 6.507-2.097 13.184 2.372 20.152 1.627 3.225-.343 3.186-1.039 6.371-1.773 3.186-.735 3.332-3.333.744-4.078-3.078-.882-14.359-3.92-14.359-3.92l-20.76-2.49s-17.574 16.379-26.248 23.72c-2.343 1.961-4.832 4.332-7.243 6.724l16.574 4.568c4.185-3.255 8.821-6.46 11.124-6.861 4.244-.717 19.399 1.274 24.751.763zm78.863-11.487c-6.088-6.244-18.967-5.116-21.563-3.999-1.637.705-.98 2.773 1.773 4.783 3.687 2.666 6.558 1.783 7.02 3.106.46 1.323 4.557 17.722 4.783 23.112.225 5.391-10.891-9.331-10.891-9.331s-4.4-6.058-3.92.833c.323 4.303 3.783 20.505 8.223 24.063a24.6 24.6 0 0 0 5.47 3.088 22.283 22.283 0 0 0 12.242-4.067l11.644-8.214-.137-.48c-.001.001-3.99-21.964-14.644-32.894z"></path>
										<path fill="#6D472E" d="M276.028 547.427s-20.681-35.285-25.072-46.89c-4.048-10.724.979-16.192-4.019-32.482-2.303-7.538-7.891-9.802-7.891-9.802s-2.322-3.627-4.705-5.009a13.868 13.868 0 0 0-4.998-1.627 15.42 15.42 0 0 0-4.509-4.567c-2.127-1.274-5.636-1.177-5.636-1.177l-3.46-8.615a8.489 8.489 0 0 0-3.754 8.93l-10.243.559c.677 3.979 7.048 6.743 12.448 7.008 0 0 3.794 13.84 4.155 15.379.457 3 .674 6.031.647 9.066-.157 1.509-2.146 1.901-3.176.911-1.313-1.274-2.872-6.233-5.949-9.135a9.804 9.804 0 0 0-7.841-2.598c6.105 13.418 6.174 13.34 9.146 20.309 1.411 3.313 3.764 6.234 11.164 10.448 9.057 5.166 12.496 9.949 15.858 19.604 3.528 10.115 3.274 12.144 5.47 18.094 7.381 20.071 32.365 11.594 32.365 11.594z"></path>
										<path fill="#301C0E" d="M226.638 466.555a.375.375 0 0 1-.344-.245l-6.047-16.604a.372.372 0 1 1 .695-.255l6.048 16.604a.372.372 0 0 1-.216.471l-.136.029zm7.076-3.383a.363.363 0 0 1-.343-.234l-3.343-8.303a.37.37 0 0 1 .686-.274l3.343 8.303a.363.363 0 0 1-.193.475l-.013.005-.137.028zm7.979 1.961a.376.376 0 0 1-.343-.226l-1.47-3.598a.365.365 0 1 1 .676-.275l1.471 3.598a.365.365 0 0 1-.193.476l-.014.005a.363.363 0 0 1-.127.02z"></path>
										<path fill="#6D472E" d="M72.44 474.014c5.655-2.323 14.701-9.037 22.543-11.889 7.686-2.755 11.193-1.765 19.838-.98 4.901.431 10.723-.843 25.65-.98 5.195-.059 11.076-.088 11.076-.088s.285-7.067-10.987-7.93c-5.881-.451-7.449-.461-10.458-1.48-2.676-.901-4.421-2.499-3.029-4.391 1.068-1.45 8.469-5.655 8.469-5.655s6.998 3.921 11.479 5.782c4.479 1.862 6.557-.294 6.557-.294a9.105 9.105 0 0 0 8.635-2.019l-6.654-2.94c1.055.409 2.136.753 3.234 1.029 7.479 1.901 9.408-2.177 9.408-2.177l-9.987-4.498s3.637.627 4.999.773c6.371.667 8.821-3.616 8.821-3.616s-23.024-6.949-26.601-6.998c-3.578-.05-10.008 1.273-10.861 1.186-2.146-.216-5.115-1.686-8.213-.98-3.098.706-13.595 7.254-17.35 9.282-13.721 7.42-70.443 28.532-70.443 28.532s13.438 18.712 33.874 10.331z"></path>
										<path fill="#301C0E" d="M137.728 439.483a.363.363 0 0 1-.205-.677c.783-.529 7.723-5.155 8.547-5.479.822-.324 7.891.892 10.037 1.273a.37.37 0 0 1-.128.726c-4.313-.765-9.097-1.46-9.646-1.304-.549.157-5.332 3.353-8.399 5.4a.363.363 0 0 1-.206.061z"></path>
										<path fill="#301C0E" d="M153.048 440.247a.327.327 0 0 1-.146 0l-9.979-4.332a.367.367 0 1 1 .294-.675l9.978 4.332a.362.362 0 0 1 .232.457.364.364 0 0 1-.379.249v-.031zm-3.5 3.92a.358.358 0 0 1-.166 0l-10.605-5.498a.368.368 0 1 1 .334-.657l10.605 5.499c.184.077.271.29.192.475a.36.36 0 0 1-.36.221v-.04z"></path>
										<path opacity=".2" fill="#FFF" d="M227.304 424.908l-35.383-8.753v-3.921a2.664 2.664 0 0 1 3.303-2.587l30.051 7.439a2.664 2.664 0 0 1 2.029 2.587v5.235z"></path>
										<path fill="#FFF" d="M213.876 410.126a4.158 4.158 0 0 1-5.363 4.49 8.029 8.029 0 0 1-5.793-6.979c-.186-3.195 2.127-5.293 5.215-4.646a7.98 7.98 0 0 1 5.941 7.135z"></path>
										<path fill="#2F363C" d="M209.427 417.292a.57.57 0 0 1-.746.619 1.147 1.147 0 0 1-.822-.98.566.566 0 0 1 .744-.618c.448.128.773.515.824.979z"></path>
										<path fill="#6F42B2" d="M208.005 404.286c-2.362-.5-4.146 1.137-3.999 3.616a6.314 6.314 0 0 0 3.106 4.901c.217.088.285 0 .275-.147-.01-.147 0-.451-.049-.823a1.462 1.462 0 0 1-1.451-.853 1.634 1.634 0 0 0-.5-.765c-.393-.362 0-.265 0-.265.287.118.522.333.666.607a1.07 1.07 0 0 0 1.256.647c0-.207.089-.403.244-.539a2.718 2.718 0 0 1-2.039-2.666 1.47 1.47 0 0 1 .373-1.118 1.776 1.776 0 0 1 0-1.195s.354 0 1.195.716c.355-.023.711 0 1.059.068.375.082.738.214 1.078.392.805-.411 1.177-.205 1.177-.205.177.384.212.817.099 1.225.3.378.475.841.5 1.323.079 1.745-.911 1.901-1.862 1.794.209.254.323.572.324.901 0 .607 0 1.078.049 1.235a.294.294 0 0 0 .303.284 3.216 3.216 0 0 0 2.755-3.607 6.124 6.124 0 0 0-4.528-5.527"></path>
										<path fill="#FFF" d="M241.683 406.333l-65.836-15.868a2.54 2.54 0 0 1-1.814-2.304l-1.107-44.626c0-1.059 70.375 13.34 70.385 14.457l.295 46.852a1.481 1.481 0 0 1-1.923 1.489z"></path>
										<path fill="#EDEEEF" d="M199.262 396.141l-23.415-5.646a2.538 2.538 0 0 1-1.814-2.304l-.979-44.626 25.483 5.332.725 47.244z"></path>
										<path fill="#FFF" d="M194.831 383.075l-17.221-4.058a1.04 1.04 0 0 1-.755-.98l-.588-25.483a.98.98 0 0 1 1.187-.981l17.348 3.715c.449.114.768.517.775.98l.459 25.807a.98.98 0 0 1-1.205 1z"></path>
										<path fill="#EDEEEF" d="M209.946 365.374l-8.272-1.813-.098-6.714 8.282 1.773.088 6.754z"></path>
										<path fill="#CDFFD5" d="M239.978 371.931l-30.032-6.557-.088-6.754 30.071 6.43.049 6.881z"></path>
										<path fill="#EDEEEF" d="M209.69 374.773l-7.93-1.804-.029-6.704 7.92 1.695.039 6.813z"></path>
										<path fill="#CDFFD5" d="M240.056 381.693l-30.365-6.92-.039-6.813 30.365 6.499.039 7.234z"></path>
										<path fill="#FFF" d="M194.901 390.376l-17.202-4.116a.98.98 0 0 1-.754-.932l-.049-2.116a.98.98 0 0 1 1.205-.981l17.211 4.106a.98.98 0 0 1 .755.98v2.146a.981.981 0 0 1-1.166.913z"></path>
										<path fill="#24292E" d="M243.339 358.257l-70.306-14.702-.118-5.234a1.431 1.431 0 0 1 1.755-1.559l66.65 13.635a2.587 2.587 0 0 1 1.96 2.411l.059 5.449z"></path>
										<path fill="#79B8FF" d="M266.882 354.758l-2.439-.52a.763.763 0 0 1-.539-.529.765.765 0 0 0-.539-.529l-.98-.216a.47.47 0 0 0-.566.349c-.012.047-.016.094-.012.142v3.832a.772.772 0 0 0 .578.735l4.519.98a.47.47 0 0 0 .578-.491v-3.019a.778.778 0 0 0-.6-.734z"></path>
										<path opacity=".2" fill="#FFF" d="M267.991 363.845l-6.753-1.451a.977.977 0 0 1-.735-.979v-.294a.6.6 0 0 1 .736-.628l6.753 1.451a.98.98 0 0 1 .745.979v.295a.599.599 0 0 1-.746.627z"></path>
										<path fill="#79B8FF" d="M266.882 368.951l-2.439-.529a.77.77 0 0 1-.539-.529.776.776 0 0 0-.539-.529l-.98-.216a.46.46 0 0 0-.578.49v3.833c.01.346.244.644.578.734l4.519.98a.46.46 0 0 0 .578-.49v-3.02a.787.787 0 0 0-.6-.724z"></path>
										<path opacity=".2" fill="#FFF" d="M267.991 378.037l-6.743-1.499a.98.98 0 0 1-.735-.98v-.294a.6.6 0 0 1 .737-.628l6.753 1.48a.98.98 0 0 1 .745.98v.294a.598.598 0 0 1-.757.647z"></path>
										<path fill="#EDEEEF" d="M398.104 369.451l-17.955 3.842a.547.547 0 0 1-.656-.414.568.568 0 0 1-.012-.184.983.983 0 0 1 .678-.892l17.964-3.843a.551.551 0 0 1 .668.599.979.979 0 0 1-.687.892zm9.518-2.039l-4.576.98a.547.547 0 0 1-.656-.414.57.57 0 0 1-.012-.184.985.985 0 0 1 .688-.893l4.576-.979a.547.547 0 0 1 .656.414.57.57 0 0 1 .012.184.981.981 0 0 1-.688.892zm6.833-1.46l-1.705.362a.547.547 0 0 1-.666-.598.978.978 0 0 1 .686-.892l1.705-.363a.55.55 0 0 1 .666.599.98.98 0 0 1-.686.892zm12.076-2.578l-7.352 1.568a.55.55 0 0 1-.666-.607.98.98 0 0 1 .686-.893l7.352-1.607a.547.547 0 0 1 .666.608.982.982 0 0 1-.686.931zm-32.229 11.478l-7.84 1.687a.551.551 0 0 1-.668-.599.982.982 0 0 1 .678-.882l7.84-1.686a.547.547 0 0 1 .656.414c.014.06.018.122.012.184a.984.984 0 0 1-.678.882zm19.623-4.197l-15.613 3.333a.547.547 0 0 1-.666-.598.98.98 0 0 1 .686-.893l15.613-3.332a.548.548 0 0 1 .666.598.975.975 0 0 1-.686.892zm-13.34 7.43l-7.842 1.677a.55.55 0 0 1-.666-.599.98.98 0 0 1 .676-.882l7.842-1.676a.548.548 0 0 1 .666.598.975.975 0 0 1-.676.882zm-2.341 5.078l-10.361 2.255a.55.55 0 0 1-.666-.598c0-.425.273-.8.676-.932l10.361-2.254a.548.548 0 0 1 .656.598.983.983 0 0 1-.666.931zm2.498 8.587l-7.34 1.558a.55.55 0 0 1-.658-.598.982.982 0 0 1 .678-.882l7.34-1.559a.55.55 0 0 1 .658.598.987.987 0 0 1-.678.883zm-4.116 5.419l-4.137.872a.547.547 0 0 1-.656-.598.977.977 0 0 1 .676-.882l4.137-.873a.55.55 0 0 1 .656.599.98.98 0 0 1-.676.882zm8.596-1.813l-5.029 1.068a.548.548 0 0 1-.656-.598.979.979 0 0 1 .676-.882l5.029-1.068a.548.548 0 0 1 .656.598.981.981 0 0 1-.676.882zm13.025-2.764l-9.35 1.96a.545.545 0 0 1-.647-.426.554.554 0 0 1-.01-.172.98.98 0 0 1 .678-.882l9.35-1.961a.547.547 0 0 1 .656.598.98.98 0 0 1-.677.883zm-3.89-12.859l-11.998 2.548a.548.548 0 0 1-.656-.598.981.981 0 0 1 .676-.882l11.998-2.559a.546.546 0 0 1 .655.598.979.979 0 0 1-.675.893zm-23.014 9.449l-6.518 1.421c-.393.079-.688-.265-.668-.695a.982.982 0 0 1 .736-.912l6.449-1.343a.548.548 0 0 1 .637.608.89.89 0 0 1-.636.921zm12.554-2.657l-8.82 1.862a.547.547 0 0 1-.648-.427.546.546 0 0 1-.01-.171.983.983 0 0 1 .678-.883l8.82-1.862a.548.548 0 0 1 .658.599.98.98 0 0 1-.678.882zm6.46-10.517l-5.752 1.225a.55.55 0 0 1-.668-.598.982.982 0 0 1 .688-.882l5.752-1.226a.55.55 0 0 1 .668.598.984.984 0 0 1-.688.883zm9.89-6.695l-2.283.49a.55.55 0 0 1-.668-.598.982.982 0 0 1 .688-.892l2.283-.49a.548.548 0 0 1 .666.598.98.98 0 0 1-.686.892zm2.352 4.088l-7.93 1.686a.548.548 0 0 1-.656-.598.982.982 0 0 1 .688-.892l7.928-1.696a.55.55 0 0 1 .658.598.983.983 0 0 1-.688.902z"></path>
										<path opacity=".9" fill="#24292E" d="M512.421 435.347c-1.656-1.117-6.02-3.44-10.43-5.694l-13.193-6.754s-.607 2.823 4.902 5.793c2.852 1.529 20.641 12.742 12.947 11.762-8.693-1.098-22.014-8.938-22.014-8.938s-.98 4.087 7.027 7.841c17.045 7.949 26.709 19.604 14.496 21.563-4.352.696-7.313 2.215-8.615 4.155-1.117 1.667.322 2.941 2.617 2.784 2.773-.167 11.438-.578 13.801-.657 7.635-.244 11.762-1.234 16.584-.734 2.264.235 9.398 1.578 12.633 3.4l27.945-7.703c-23.229-8.118-54.956-24.31-58.7-26.818zm-58.045 55.937c4.234-3.46 6.744-11.115 8.096-14.908 1.354-3.793 5.166-7.694 4.293-8.331-1.186-.854-5.605-.049-8.213 1.773-20.133 14.124-23.848 8.214-23.848 8.214l-2.078 22.005a22.275 22.275 0 0 0 3.783-.696l13.879-3.822a25.022 25.022 0 0 1 4.088-4.235z"></path>
										<path fill="#F2D1B3" d="M438.007 548.259s-23.523-2.548-18.191-28.552c2.254-11.017 5.559-21.073 6.313-26.522.451-3.254-4.549-10.409-5.822-17.104-1.176-6.225-2.656-21.877-2.186-23.229.441-1.961 4.656-9.802 4.656-9.802s1.607 1.52 1.371 4.9c-.186 2.676-1.039 4.822-.91 5.783.068.539 1.273 6.939 1.588 7.9.871 1.892 1.576.656 1.656-.245.342-3.725-.756-12.929 1.078-17.153 2.234-5.537 5.391-12.516 5.391-12.516s2.813 1.646 3.098 3.842l1.43-4.097s3.098 2.94 2.773 6.909c-.322 3.97-.979 6.489-.773 8.214.205 1.726.98 10.027 1.441 11.448.215.667.979.657 1.098-.068.225-2.01 1.676-12.174 1.676-12.174l3.469-11.419a7.415 7.415 0 0 1 2.941 6.47c-.236 4.391-.912 7.263-.979 8.938.236 1.167.578 14.487.932 17.144.352 2.656 1.725 5.439 5.086 2.293 1.961-1.804 6.078-8.88 13.359-5.597 0 0-5.703 5.881-6.498 7.116-.793 1.234-4.566 11.478-7.252 13.546-2.686 2.067-9.625 6.763-11.4 12.938-.815 5.314-4.001 32.984-5.345 51.037z"></path>
										<path fill="#D3AB90" d="M433.302 458.958a.361.361 0 0 1-.361-.344c0-.382-.568-9.399-.48-11.692.078-2.068 2.42-9.253 2.52-9.557a.366.366 0 0 1 .695.226c0 .078-2.412 7.39-2.49 9.36-.088 2.254.48 11.526.48 11.614a.362.362 0 0 1-.332.392l-.012.001h-.02z"></path>
										<path fill="#F2D1B3" d="M579.335 454.195s-34.305-8.91-37.834-9.802a23.439 23.439 0 0 1-7.479-3.921c-2.166-1.715-8.154-10.154-8.547-10.684-.98-1.304-14.191-11.438-14.191-11.438a6.737 6.737 0 0 0-.078 5.137s-10.086-5.597-11.135-6.205c-1.049-.607-4.313-2.783-4.313-2.783s-1.266 4.273 1.813 6.753a53.498 53.498 0 0 0 5.656 4.028l-15.447-7.135s-.393 3.626 1.783 5.646c1.961 1.813 8.105 4.077 10.193 5.636a79.35 79.35 0 0 1 6.244 5.488c.48.48.215.98-.461.735-2.852-.979-8.391-3.489-9.92-4.136-1.891-.804-13.23-5.332-13.24-5.352-.012-.02-.746 4.733 3.066 7.066 3.402 2.078 8.576 4.117 10.125 4.901 7.088 3.704 17.262 10.448 18.191 14.525.854 3.715.785 5.381-9.986 6.606-8.527.979-10.018 6.136-10.018 6.136s13.723-.206 15.574-.451c2.441-.333 14.213-1.627 20.328-3.019 3.646-.823 10.645-.441 13.801.156 3.156.599 46.695 10.723 46.695 10.723s.962-15.278-10.82-18.61z"></path>
										<path fill="#D3AB90" d="M513.283 432.22a.357.357 0 0 1-.254-.098 80.095 80.095 0 0 0-6.283-5.234.369.369 0 0 1-.074-.515.37.37 0 0 1 .516-.073 81.008 81.008 0 0 1 6.342 5.283.372.372 0 0 1-.256.636l.009.001zm6.097-2.549a.369.369 0 0 1-.246-.089c-1.959-1.725-5.664-4.352-5.693-4.381a.367.367 0 0 1-.09-.51.367.367 0 0 1 .51-.088s3.775 2.676 5.764 4.42a.372.372 0 0 1-.245.648z"></path>
										<path fill="#404A51" d="M501.188 403.001l2.068-67.797-2.941.627-1.891 69.307 1.322-.323a1.961 1.961 0 0 0 1.442-1.814z"></path>
										<path opacity=".4" fill="#8F979F" d="M500.531 344.192v1.343a.354.354 0 0 0 .452.343l1.295-.373a.352.352 0 0 0 .254-.323v-1.323a.351.351 0 0 0-.442-.342l-1.293.353a.35.35 0 0 0-.266.322z"></path>
										<path fill="#FFF" d="M501.345 319.895L371.21 346.536a1.96 1.96 0 0 0-1.539 1.872l-.088 14.967 133.664-28.189.4-13.34a1.958 1.958 0 0 0-2.302-1.951z"></path>
										<path fill="#24292E" d="M499.179 326.207a.089.089 0 0 1-.078 0l-1.49-1.333a.129.129 0 0 1 0-.177.116.116 0 0 1 .156 0l1.49 1.333a.129.129 0 0 1 0 .177.171.171 0 0 1-.078 0z"></path>
										<path fill="#24292E" d="M497.66 326.549a.083.083 0 0 1-.078 0 .129.129 0 0 1 0-.177l1.539-1.96a.107.107 0 0 1 .152-.004l.004.004a.129.129 0 0 1 0 .177l-1.539 1.96a.13.13 0 0 1-.078 0zm-72.11 22.339l-1.549-1.274a.078.078 0 0 1 .041-.103.07.07 0 0 1 .047-.005l1.549 1.273a.07.07 0 0 1 0 .089l-.088.02z"></path>
										<path fill="#24292E" d="M423.982 349.221a.07.07 0 0 1 0-.088l1.588-1.961c.012-.03.045-.046.074-.035a.06.06 0 0 1 .037.075.085.085 0 0 1-.023.029l-1.588 1.96-.088.02zm67.492-21.309l-1.764.373a.088.088 0 0 1-.117-.099v-1.901a.156.156 0 0 1 .117-.146l1.764-.363a.09.09 0 0 1 .115.052.123.123 0 0 1 .004.047v1.901a.157.157 0 0 1-.119.136zm-1.646.099l1.529-.324v-1.656l-1.529.313v1.667zm-6.184.607l-1.785.372a.097.097 0 0 1-.115-.076l-.002-.021a.157.157 0 0 1 .117-.147l1.785-.372a.097.097 0 0 1 .115.076c.002.007.002.015.002.021a.157.157 0 0 1-.117.147zm-111.022 22.925a1.234 1.234 0 0 0 1.588 1.244 2.089 2.089 0 0 0 1.607-1.911 1.236 1.236 0 0 0-1.578-1.244 2.076 2.076 0 0 0-1.617 1.911z"></path>
										<path fill="#EBEBEB" d="M380.199 361.081l1.695-6.479a1.8 1.8 0 0 1 1.313-1.273l3.922-.814a1.038 1.038 0 0 1 1.281.719c.002.002.002.005.002.007l1.549 5.754"></path>
										<path fill="#B5B5B5" d="M385.236 357.474l-.264.059a.98.98 0 0 1-1.205-.98 1.597 1.597 0 0 1 1.225-1.471l.264-.059a.98.98 0 0 1 1.197.98 1.603 1.603 0 0 1-1.217 1.471z"></path>
										<path fill="#24292E" d="M377.257 356.424l-4.508.98a.218.218 0 0 1-.268-.148.256.256 0 0 1-.008-.067.366.366 0 0 1 .275-.333l4.508-.98a.207.207 0 0 1 .264.124c.012.029.016.061.012.092a.35.35 0 0 1-.275.332zm11.213-7.909l-10.066 2.098a.216.216 0 0 1-.274-.214.355.355 0 0 1 .273-.324l10.066-2.087a.207.207 0 0 1 .266.215.35.35 0 0 1-.265.312zm-11.223 9.4l-4.508.979a.217.217 0 0 1-.276-.214.367.367 0 0 1 .275-.334l4.508-.979a.207.207 0 0 1 .264.123c.012.03.016.063.012.092a.36.36 0 0 1-.275.333zm-.019 1.48l-4.508.98a.218.218 0 0 1-.268-.148.25.25 0 0 1-.008-.067.363.363 0 0 1 .275-.333l4.508-.98a.208.208 0 0 1 .264.124c.012.029.014.061.012.092a.36.36 0 0 1-.275.332z"></path>
										<path fill="#EBEBEB" d="M436.272 347.858l-4.646.98a.901.901 0 0 1-1.117-.647l-.617-2.392a1.146 1.146 0 0 1 .863-1.313l4.645-.979a.894.894 0 0 1 1.1.62l.008.036.609 2.382a1.149 1.149 0 0 1-.845 1.313z"></path>
										<path fill="#24292E" d="M434.322 346.271l-1.598.343a.195.195 0 0 1-.238-.14c-.006-.021-.008-.044-.006-.065a.344.344 0 0 1 .254-.314l1.598-.343a.197.197 0 0 1 .24.14c.006.021.008.044.006.066a.338.338 0 0 1-.256.313z"></path>
										<path fill="#24292E" d="M433.509 347.271a.196.196 0 0 1-.24-.141c-.006-.021-.008-.043-.006-.065v-1.656a.334.334 0 0 1 .256-.313.195.195 0 0 1 .238.14c.006.021.008.044.006.065v1.657a.343.343 0 0 1-.254.313z"></path>
										<path fill="#FFF" d="M388.128 359.355l1.676-6.439a1.785 1.785 0 0 1 1.303-1.265l34.934-7.36a.98.98 0 0 1 1.207.682l.008.033 1.451 5.606"></path>
										<path fill="#EBEBEB" d="M428.548 350.945l-1.508-5.822a.785.785 0 0 0-.98-.568l-34.934 7.37a1.434 1.434 0 0 0-1.039.98l-1.656 6.371-.559.117 1.695-6.518a2.149 2.149 0 0 1 1.568-1.52l34.934-7.36a1.173 1.173 0 0 1 1.449.813l.012.039 1.537 5.949-.519.149z"></path>
										<path fill="#B5B5B5" d="M392.792 355.896l-.264.059a.98.98 0 0 1-1.185-.98 1.588 1.588 0 0 1 1.215-1.461l.266-.059a.981.981 0 0 1 1.185.981 1.588 1.588 0 0 1-1.217 1.46zm28.829-7.214l-25.376 5.41a.204.204 0 0 1-.256-.138.195.195 0 0 1-.01-.067.356.356 0 0 1 .266-.324l25.387-5.449a.195.195 0 0 1 .254.206.347.347 0 0 1-.265.362z"></path>
										<path fill="#DDE7ED" d="M324.476 493.175c-8.424.01-16.824-.896-25.053-2.705-15.564-3.47-46.586-11.615-46.899-11.703a.981.981 0 1 1 .498-1.892c.314.078 31.297 8.224 46.822 11.684 15.928 3.548 33.59 3.548 48.439 0 15.938-3.804 45.881-11.292 46.176-11.36a.981.981 0 0 1 .469 1.902c-.303.078-30.246 7.557-46.193 11.37a105.507 105.507 0 0 1-24.259 2.704z"></path>
									</svg>